<?xml version="1.0" encoding="utf-8"?>
<!-- Generator: Adobe Illustrator 16.0.0, SVG Export Plug-In . SVG Version: 6.00 Build 0)  -->
<!DOCTYPE svg PUBLIC "-//W3C//DTD SVG 1.1//EN" "http://www.w3.org/Graphics/SVG/1.1/DTD/svg11.dtd">
<svg version="1.1" id="Layer_1" xmlns="http://www.w3.org/2000/svg" xmlns:xlink="http://www.w3.org/1999/xlink" x="0px" y="0px"
	 width="26.014px" height="26px" viewBox="0 0 26.014 26" enable-background="new 0 0 26.014 26" xml:space="preserve">
<path fill-rule="evenodd" clip-rule="evenodd" fill="#FFFFFF" d="M13.007,0C5.823,0,0,5.82,0,13s5.823,13,13.007,13
	s13.007-5.82,13.007-13S20.19,0,13.007,0z M10.962,6.718c0-0.996,0.995-1.802,1.991-1.802s2.02,0.807,2.02,1.802v7.512
	c0,0.996-1.211,1.803-2.207,1.803s-1.804-0.807-1.804-1.803V6.718z M12.987,21.001c-1.099,0-1.991-0.892-1.991-1.991
	c0-1.099,0.893-1.991,1.991-1.991c1.102,0,1.993,0.892,1.993,1.991C14.98,20.109,14.089,21.001,12.987,21.001z"/>
</svg>
